<svg width="165" height="66" viewBox="0 0 165 66" fill="none" xmlns="http://www.w3.org/2000/svg">
<path fill-rule="evenodd" clip-rule="evenodd" d="M102.167 0.924896V65.793H165V0.924896H102.167ZM35 0.924896V65.793H97.8333V0.924896H35Z" fill="#0055A6"/>
<path fill-rule="evenodd" clip-rule="evenodd" d="M161.75 4.1683V62.5496H105.417V4.1683H161.75ZM69.0415 46.8374C68.3492 45.9714 67.9993 44.8341 67.9993 43.4589C67.9993 42.048 68.3341 40.9117 68.9938 40.0814C69.7132 39.1722 70.7727 38.7116 72.1442 38.7116H72.2492V36.3569H72.1442C70.0046 36.3569 68.3536 37.0445 67.2367 38.3992C66.2205 39.6263 65.7048 41.3334 65.7048 43.4773C65.7048 45.5487 66.2638 47.2515 67.3667 48.5391C68.5269 49.8927 70.1443 50.5803 72.1756 50.5803H72.2807V48.2256H72.1756C70.8366 48.2256 69.7814 47.7586 69.0415 46.8374ZM60.8927 46.8374C60.2004 45.9714 59.8494 44.8352 59.8494 43.4589C59.8494 42.048 60.1842 40.9117 60.8439 40.0814C61.5632 39.1722 62.6227 38.7116 63.9942 38.7116H64.0993V36.3569H63.9942C61.8547 36.3569 60.2037 37.0445 59.0867 38.3992C58.0706 39.6263 57.5549 41.3334 57.5549 43.4773C57.5549 45.5487 58.115 47.2515 59.2178 48.5391C60.3781 49.8927 61.9955 50.5803 64.0267 50.5803H64.1318V48.2256H64.0267C62.6877 48.2256 61.6326 47.7586 60.8927 46.8374ZM68.3817 23.9055V30.4604H70.8149V16.89H68.3817V21.6167H67.0579C66.5119 21.6167 66.1046 21.4892 65.8467 21.2373C65.6604 21.0589 65.5705 20.821 65.5705 20.5086V16.89H63.1373V20.7648C63.1373 21.6567 63.4807 22.4124 64.1589 23.0114C64.8295 23.6049 65.6507 23.9055 66.6029 23.9055H68.3817ZM91.6582 36.0347L91.4871 36.2185L86.6262 41.4285V36.6813H84.5007V50.1749H86.6262V44.6319L89.7082 41.2815L90.017 50.1749H92.1837L91.6582 36.0347ZM75.7419 30.4604H78.174V19.1463H80.2247V16.8911H73.7247V19.1463H75.7419V30.4604ZM81.3449 36.2185L76.484 41.4285V36.6813H74.3585V50.1749H76.484V44.6319L79.5661 41.2815L79.8737 50.1749H82.0404L81.5172 36.0337L81.3449 36.2185ZM85.7205 19.1463H86.6012C87.2285 19.1463 87.6597 19.3388 87.9207 19.7366C88.1309 20.0675 88.2804 20.7064 88.3757 21.5821H85.662L85.7205 19.1463ZM85.6187 23.8374L88.6552 23.8385L89.3377 30.4615L91.7882 30.4604L90.6659 20.5399C90.667 19.2393 90.2759 18.2576 89.5035 17.6403C88.8892 17.143 88.0475 16.89 87.0021 16.89H83.3978L82.9504 30.4604H85.3836L85.6187 23.8374ZM43.2148 19.1463H46.2276V30.4615H48.6607V16.89H40.7817V30.4604H43.2148V19.1463ZM44.3523 44.0481C44.1779 44.3941 43.9742 44.5671 43.7478 44.5671C43.5279 44.5671 43.3427 44.4179 43.1834 44.1087C43.0133 43.7811 42.9277 43.3021 42.9277 42.6826V38.7116H43.0166C43.5192 38.7116 43.9027 38.997 44.1898 39.5819C44.4845 40.1852 44.634 41.1485 44.634 42.4491C44.6329 43.14 44.5387 43.6784 44.3523 44.0481ZM43.022 36.7018H40.7676V50.1662H42.9277V46.2525C43.3459 46.6299 43.802 46.8547 44.3014 46.8547C45.0207 46.8547 45.6187 46.4644 46.0813 45.6958C46.5992 44.8319 46.8602 43.5529 46.8602 41.8902C46.8602 40.7355 46.6501 39.6987 46.2362 38.8133C45.5841 37.4132 44.5018 36.7018 43.022 36.7018ZM57.4953 27.1413C57.179 28.0203 56.7327 28.4473 56.1336 28.4473C55.5594 28.4473 55.1261 28.0149 54.8087 27.124C54.4772 26.1932 54.3092 25.0126 54.3092 23.6147C54.3092 22.18 54.4739 20.9994 54.8 20.1053C55.1098 19.2501 55.5464 18.835 56.1336 18.835C56.7922 18.835 57.2624 19.2555 57.5679 20.1204C57.8517 20.9172 57.9947 22.0795 57.9947 23.5757C57.9947 25.0223 57.8268 26.2213 57.4953 27.1413ZM59.3738 28.6755C60.0953 27.3965 60.4615 25.6807 60.4615 23.5757C60.4615 21.4956 60.0823 19.7918 59.337 18.5117C58.5743 17.2057 57.4953 16.544 56.1292 16.544C54.8336 16.544 53.8022 17.21 53.0656 18.5236C52.3441 19.8058 51.9779 21.5119 51.9779 23.593C51.9779 25.7477 52.3278 27.4873 53.019 28.7641C53.7253 30.0723 54.7718 30.7361 56.1292 30.7361C57.5083 30.7372 58.6003 30.0442 59.3738 28.6755ZM53.2822 46.9228C52.9973 47.8105 52.5781 48.2602 52.0386 48.2602C51.5197 48.2602 51.1123 47.804 50.8263 46.9045C50.5295 45.9671 50.3778 44.779 50.3778 43.3713C50.3778 41.928 50.5262 40.7398 50.8177 39.8392C51.0972 38.9754 51.5077 38.5376 52.0375 38.5376C52.6387 38.5376 53.0677 38.97 53.3462 39.8576C53.6007 40.6598 53.7297 41.8285 53.7297 43.3346C53.7307 44.7898 53.5802 45.9963 53.2822 46.9228ZM54.8888 38.3019C54.2117 37.0121 53.2541 36.3569 52.0407 36.3569C50.8902 36.3569 49.9748 37.0153 49.3205 38.3148C48.6781 39.5906 48.3509 41.2858 48.3509 43.3529C48.3509 45.4947 48.664 47.2256 49.2782 48.4948C49.9044 49.7868 50.8339 50.4419 52.0397 50.4419C53.2638 50.4419 54.2334 49.7565 54.9213 48.4018C55.5637 47.1337 55.8898 45.4287 55.8898 43.3346C55.8909 41.2653 55.554 39.5722 54.8888 38.3019Z" fill="white"/>
<path fill-rule="evenodd" clip-rule="evenodd" d="M121.058 22.1768C121.524 23.2352 122.29 24.3185 124.374 25.7802C124.84 26.1078 125.354 26.7889 124.962 27.7457C124.569 28.7036 123.832 30.0647 124.274 30.5923C124.716 31.1232 126.286 31.3999 127.564 30.8702C127.564 30.8702 127.834 31.7016 128.301 32.2302C128.301 32.2302 128.081 32.6843 127.344 32.4584C127.344 32.4584 127.614 33.1384 127.246 33.8692C127.246 33.8692 126.386 33.719 126.017 32.9103C126.017 32.9103 125.673 33.5417 124.987 33.7665C124.987 33.7665 124.422 33.466 124.545 32.3059C124.545 32.3059 124.127 33.3395 122.851 33.5146C122.851 33.5146 122.114 32.5578 123.072 31.2713C123.072 31.2713 122.383 31.9027 121.133 31.601C121.133 31.601 120.934 30.9459 122.064 30.0366C122.064 30.0366 120.786 29.988 120.296 28.8787C120.296 28.8787 120.836 28.1987 122.163 28.35C122.163 28.35 120.934 28.0722 120.665 26.5597C120.665 26.5597 121.549 25.9802 122.949 26.9121C122.949 26.9121 122.702 26.4343 122.114 25.9553C121.523 25.4775 120.812 24.1412 121.058 22.1768ZM126.195 37.3764C126.024 37.1439 125.88 36.892 125.767 36.6261C125.987 38.4608 126.066 39.6976 127.03 40.8836C127.03 40.8836 127.613 40.089 127.237 38.1581C127.052 38.1036 126.876 38.0201 126.717 37.9105C126.717 37.9105 126.938 38.6943 126.801 39.4846C126.801 39.4836 126.453 39.223 126.195 37.3764ZM124.527 37.1862C124.359 36.9674 124.208 36.7368 124.074 36.4964C123.993 37.5602 123.72 40.3636 124.634 41.2404C124.634 41.2404 125.261 40.7701 125.482 36.6834C125.35 36.9116 125.118 37.1548 125.005 37.2878C125.005 37.2878 125.157 38.5851 124.704 39.4998C124.703 39.4998 124.248 39.1452 124.527 37.1862ZM122.347 39.3279C123.116 38.383 123.347 35.5526 123.347 35.5526C123.453 35.4801 123.558 35.399 123.667 35.3115C123.711 35.2759 123.753 35.238 123.793 35.198C123.792 35.3017 123.798 35.4077 123.806 35.5147C123.696 37.2175 123.565 38.9733 123.047 39.8479C122.539 40.7052 121.607 41.1485 121.607 41.1485C120.731 39.5517 121.789 37.4056 122.674 35.9158C122.783 35.8726 122.892 35.8207 123.006 35.7612C122.694 36.9105 122.104 38.2749 122.347 39.3279ZM120.177 34.4141C120.171 34.5979 120.204 34.745 120.228 34.8239C120.238 34.8531 120.25 34.8952 120.27 34.9374C119.536 35.678 118.993 36.3818 117.907 37.9321C116.818 39.4836 115.096 39.5441 115.096 39.5441C115.261 38.29 115.595 37.2964 116.516 36.2283C117.437 35.1579 118.615 34.1817 119.483 33.533C119.705 33.64 119.996 33.706 120.364 33.6617C120.391 33.6584 120.419 33.6552 120.449 33.6498C120.344 33.7855 120.267 33.9405 120.223 34.106C119.567 34.492 117.665 35.4834 116.893 37.0791C116.894 37.0791 118.098 36.6932 120.177 34.4141ZM118.811 32.8508L118.884 32.7189C118.906 32.6767 118.932 32.6359 118.96 32.5967C118.253 32.88 115.731 33.8563 114.915 34.2887C114.1 34.7244 112.919 35.7104 112.278 37.7127C112.278 37.7127 113.978 37.8705 115.383 36.678C116.786 35.4834 118.423 33.8184 119.122 33.2876C119.063 33.2306 119.009 33.1692 118.96 33.1038C118.96 33.1038 117.059 34.8325 115.05 35.5774C115.05 35.5774 115.481 34.7774 116.275 34.1957C117.241 33.4908 117.966 33.253 118.811 32.8508ZM117.37 31.6724C117.396 31.6032 117.426 31.5372 117.454 31.4734C116.622 31.6486 114.542 31.9027 113.612 32.1946C112.685 32.4875 111.004 33.186 110.006 35.1363C110.006 35.1363 111.47 35.6012 114.232 34.266C116.992 32.933 117.858 32.6573 118.386 32.5146C118.077 32.494 117.777 32.3998 117.512 32.24C116.41 32.7416 114.937 33.3395 113.475 33.3773C113.475 33.3773 114.198 32.8541 114.953 32.5276C115.738 32.1863 116.546 31.9006 117.37 31.6724ZM117.44 30.2669C117.71 30.3977 117.917 30.4637 118.271 30.5015C118.063 30.6379 117.881 30.8095 117.732 31.0086C116.759 31.2961 115.1 31.6107 112.364 31.814C109.627 32.0173 108.167 31.4994 108.167 31.4994C109.122 30.9015 110.642 30.2939 111.67 30.0907C112.698 29.8874 115.398 29.908 116.581 29.7436C116.596 29.7555 116.739 29.8777 116.969 30.0215C115.975 30.1134 113.854 30.2161 112.759 30.7837C112.759 30.7837 114.78 31.0615 117.44 30.2669ZM117.235 28.6528C117.372 28.5684 117.539 28.4863 117.742 28.4073C116.358 27.9771 114.454 27.2905 111.594 27.097C109.494 26.9554 107.977 27.0786 107.193 27.2873C107.193 27.2873 109.104 28.6701 111.29 29.1587C113.475 29.6474 115.25 29.3371 116.549 29.3479C116.643 29.1931 116.755 29.0501 116.883 28.922C115.367 28.9317 112.841 28.5284 111.937 28.2203C111.938 28.2214 114.141 27.7489 117.235 28.6528ZM117.227 26.9813C117.235 27.0203 117.395 27.8225 118.301 28.2668C116.357 27.3922 112.523 26.8884 110.465 26.0105C107.68 24.8234 107.173 23.3411 107.173 23.3411C109.582 23.2763 111.53 23.8806 113.032 24.352C114.79 24.9056 117.467 25.9305 118.404 26.3586C118.053 26.3737 117.667 26.4764 117.343 26.6992C116.033 26.1835 115.425 25.9672 114.237 25.6256C113.3 25.3564 112.606 25.3034 112.022 25.245C112.022 25.245 112.845 25.8051 114.205 26.2526C115.551 26.6927 116.135 26.7662 117.227 26.9813ZM117.08 24.7996C117.158 24.9423 117.389 25.2807 117.48 25.4148C114.402 24.8861 111.02 22.4979 109.974 21.0189C108.928 19.5388 109.226 17.3279 109.226 17.3279C110.24 17.5387 112.445 19.4901 113.015 20.075C113.586 20.661 115.312 22.3833 116.505 23.3466L116.88 24.4569C115.893 23.6517 114.895 22.8613 113.885 22.086C113.303 21.6351 112.431 20.9983 111.566 20.6935C111.566 20.6935 112.363 21.7605 113.007 22.2795C113.673 22.8276 114.382 23.3218 115.128 23.7574C115.681 24.0677 115.962 24.245 117.08 24.7996Z" fill="#0055A6"/>
<path fill-rule="evenodd" clip-rule="evenodd" d="M125.756 33.6368C125.85 33.5546 125.93 33.4714 125.998 33.3946C126.14 33.5784 126.613 34.1892 126.846 34.7947C127.025 35.3125 127.212 36.0174 127.308 36.4229C127.401 36.8251 127.683 37.6619 127.852 37.9516C127.852 37.9516 127.102 38.0478 126.547 37.384C126.002 36.731 125.816 36.0747 125.731 35.4001C125.67 34.8134 125.679 34.2215 125.756 33.6368ZM124.574 33.7384C124.65 33.8495 124.748 33.9435 124.863 34.0141L124.962 34.0671L125.068 34.0325C125.162 34.0011 125.247 33.9655 125.328 33.9244C125.436 34.2357 125.481 34.386 125.508 34.6509C125.544 35.0012 125.612 35.5547 125.483 36.0066C125.326 36.558 125.006 36.8932 124.828 37.1072C124.828 37.1072 124.339 36.5537 124.197 36.0964C124.051 35.6185 123.998 35.0617 124.179 34.493C124.262 34.2189 124.396 33.9628 124.574 33.7384ZM122.886 33.7903C123.309 33.7372 123.71 33.5747 124.051 33.3189C124.116 33.5006 124.214 33.7449 124.141 34.0898C124.067 34.4358 123.836 34.8196 123.499 35.0963C122.993 35.5104 122.316 35.9007 121.569 35.7807C121.569 35.7807 121.398 35.2066 122.886 33.7903ZM122.32 32.8292C122.381 33.3416 122.619 33.6627 122.639 33.6876C122.463 33.9017 121.833 35.0142 120.516 34.826C120.516 34.826 120.161 34.0703 121.036 33.4681C121.631 33.0605 121.913 32.9773 122.32 32.8292ZM122.435 31.8799C121.986 31.991 121.515 31.9877 121.068 31.8702L120.917 31.8345L120.873 31.6832C120.197 32.2497 119.394 32.3427 119.119 32.853C119.119 32.853 119.456 33.4952 120.331 33.387C120.725 33.3449 121.106 33.2228 121.45 33.0283C121.795 32.8339 122.096 32.5711 122.335 32.2562C122.355 32.1632 122.393 31.9956 122.435 31.8799ZM120.917 31.0842C121.043 30.895 121.128 30.601 121.391 30.3037C120.801 30.1943 120.195 30.202 119.608 30.3264C118.8 30.4842 117.975 30.6788 117.562 31.9405C117.562 31.9405 118.081 32.3935 119.025 32.1967C119.822 32.0291 120.52 31.6756 120.917 31.0842ZM120.575 29.7144C120.349 29.5151 120.17 29.269 120.05 28.9933L119.981 28.8366C119.282 28.5436 118.551 28.3922 117.837 28.6657C117.124 28.9403 116.934 29.2571 116.754 29.5296C116.754 29.5296 117.545 30.2096 118.456 30.2355C119.368 30.2647 120.209 29.9955 120.575 29.7144ZM120.786 28.2398C120.906 28.1922 121.043 28.149 121.196 28.1176C120.886 27.8376 120.58 27.4116 120.432 26.7716C120.108 26.8494 119.342 26.8494 119.007 26.7175C118.671 26.5856 118.009 26.577 117.494 26.9294C117.494 26.9294 117.667 27.856 118.835 28.1738C119.931 28.4711 120.341 28.3944 120.786 28.2398ZM120.366 26.4289L120.521 26.3283C120.541 26.3143 120.802 26.1499 121.249 26.1153C120.873 25.8267 119.979 25.0569 119.342 24.6882C118.651 24.2893 117.501 23.7617 116.917 23.6828C116.917 23.6828 117.466 25.1607 118.105 25.7553C118.766 26.3726 119.229 26.6019 120.366 26.4289ZM121.547 25.7499C121.267 25.3758 121.047 24.8623 120.885 24.2547C120.751 23.7606 120.451 22.5346 120.271 22.2168C120.092 21.8989 119.446 20.7864 118.183 20.4426C118.183 20.4426 117.846 21.8892 118.482 23.0363C119.028 24.0244 120.152 25.0666 121.547 25.7499ZM128.549 32.4832C128.707 32.6432 128.827 32.734 129.109 32.8789C129.109 32.8789 129.511 33.6671 129.025 34.6195C128.614 35.4207 128.247 36.2436 127.926 37.0845C127.926 37.0845 127.664 37.0467 127.374 35.5536C127.176 34.5417 126.927 34.2909 126.667 33.9449C126.95 34.0919 127.181 34.1374 127.198 34.1406L127.395 34.1752L127.484 33.9957C127.672 33.6254 127.745 33.2076 127.694 32.7957C128.147 32.8065 128.39 32.5719 128.481 32.4508C128.49 32.44 128.498 32.4302 128.504 32.4205L128.549 32.4832Z" fill="#0055A6"/>
<path fill-rule="evenodd" clip-rule="evenodd" d="M117.826 21.0502C117.821 21.2019 117.821 21.3537 117.824 21.5054L117.849 21.8611C117.106 20.8859 116.213 19.7075 115.361 18.6242C114.777 17.8803 114.286 17.4306 113.737 17.0684C114.199 18.4458 115.024 19.5442 115.611 20.0923C116.196 20.6394 117.042 21.5659 117.868 22.1303L117.948 22.4092C118.012 22.6654 118.108 22.9271 118.246 23.1747C118.439 23.5217 118.692 23.8655 118.991 24.1952C118.73 24.0647 118.466 23.9403 118.199 23.8223L117.943 23.7131C115.672 22.4762 113.417 19.9161 112.505 18.1312C111.593 16.3495 111.972 14.2812 112.215 13.172C113.245 14.0693 114.73 15.837 115.378 16.7981C116.173 17.9776 117.193 19.6491 117.824 21.0081V21.0502H117.826ZM149.688 28.6528C149.527 28.5559 149.357 28.4738 149.18 28.4073C150.565 27.977 152.469 27.2905 155.33 27.097C157.43 26.9554 158.944 27.0786 159.73 27.2873C159.73 27.2873 157.819 28.6701 155.632 29.1587C153.446 29.6474 151.672 29.3371 150.373 29.3479C150.287 29.2171 150.192 29.0701 150.039 28.922C151.555 28.9317 154.081 28.5284 154.984 28.2203C154.985 28.2214 152.783 27.7489 149.688 28.6528ZM149.695 26.9813C149.688 27.0202 149.527 27.8224 148.621 28.2668C150.566 27.3922 154.4 26.8883 156.458 26.0105C159.243 24.8234 159.75 23.3411 159.75 23.3411C157.342 23.2763 155.392 23.8806 153.892 24.352C152.133 24.9055 149.455 25.9305 148.519 26.3586C148.87 26.3737 149.255 26.4764 149.579 26.6991C150.89 26.1834 151.498 25.9672 152.686 25.6256C153.622 25.3564 154.317 25.3034 154.901 25.245C154.901 25.245 154.076 25.805 152.717 26.2526C151.371 26.6927 150.79 26.7662 149.695 26.9813ZM149.842 24.7996C149.764 24.9423 149.535 25.2807 149.445 25.4148C152.522 24.8861 155.905 22.4979 156.951 21.0189C157.996 19.5388 157.697 17.3279 157.697 17.3279C156.682 17.5387 154.479 19.4901 153.909 20.075C153.338 20.661 151.611 22.3833 150.42 23.3466L150.045 24.4569C151.066 23.6136 152.282 22.6698 153.039 22.0859C153.621 21.6351 154.491 20.9983 155.36 20.6934C155.36 20.6934 154.561 21.7605 153.918 22.2795C153.172 22.8827 152.418 23.406 151.795 23.7574C151.245 24.0677 150.96 24.245 149.842 24.7996ZM149.097 21.0502C149.099 21.1875 149.103 21.3432 149.099 21.5054L149.072 21.8611C149.817 20.8859 150.71 19.7075 151.563 18.6242C152.146 17.8803 152.637 17.4306 153.185 17.0684C152.724 18.4458 151.898 19.5442 151.312 20.0923C150.727 20.6394 149.882 21.5659 149.056 22.1303L148.976 22.4092C148.91 22.6762 148.81 22.9336 148.678 23.1747C148.468 23.5415 148.218 23.8838 147.932 24.1952C148.173 24.0752 148.449 23.9433 148.724 23.8223L148.98 23.7131C151.251 22.4762 153.506 19.9161 154.418 18.1312C155.328 16.3495 154.951 14.2812 154.709 13.172C153.677 14.0693 152.193 15.837 151.544 16.7981C150.748 17.9776 149.731 19.6491 149.099 21.0081V21.0502H149.097ZM120.731 35.1277C119.795 36.0899 117.82 38.2446 118.006 40.5852C118.006 40.5852 119.839 39.996 120.594 38.6154C121.349 37.237 121.816 36.3721 122.135 36.0607C121.933 36.089 121.728 36.0875 121.527 36.0564L121.362 36.0283C120.897 36.8975 119.975 38.3224 119.145 38.8187C119.145 38.8187 118.934 37.6662 121.373 35.3277C121.407 35.2315 121.457 35.1244 121.526 35.0033C121.302 35.0833 121.048 35.1331 120.761 35.1255L120.731 35.1277ZM145.866 22.1768C145.398 23.2352 144.632 24.3185 142.55 25.7802C142.084 26.1078 141.57 26.7889 141.962 27.7457C142.355 28.7036 143.092 30.0647 142.648 30.5923C142.207 31.1231 140.636 31.3999 139.359 30.8702C139.359 30.8702 139.09 31.7016 138.622 32.2302C138.622 32.2302 138.843 32.6843 139.58 32.4584C139.58 32.4584 139.31 33.1384 139.678 33.8692C139.678 33.8692 140.537 33.719 140.906 32.9103C140.906 32.9103 141.249 33.5416 141.937 33.7665C141.937 33.7665 142.502 33.466 142.379 32.3059C142.379 32.3059 142.797 33.3395 144.072 33.5146C144.072 33.5146 144.81 32.5578 143.852 31.2713C143.852 31.2713 144.539 31.9026 145.792 31.601C145.792 31.601 145.989 30.9458 144.859 30.0366C144.859 30.0366 146.135 29.988 146.628 28.8787C146.628 28.8787 146.086 28.1987 144.761 28.35C144.761 28.35 145.989 28.0722 146.259 26.5597C146.259 26.5597 145.376 25.9802 143.977 26.9121C143.977 26.9121 144.222 26.4343 144.811 25.9553C145.398 25.4775 146.111 24.1412 145.866 22.1768ZM140.727 37.3764C140.913 37.1245 141.052 36.8715 141.155 36.6261C140.937 38.4608 140.857 39.6976 139.892 40.8836C139.892 40.8836 139.31 40.089 139.687 38.1581C139.848 38.1105 140.029 38.0327 140.206 37.9105C140.206 37.9105 139.985 38.6943 140.123 39.4846C140.121 39.4836 140.47 39.223 140.727 37.3764ZM142.395 37.1862C142.564 36.968 142.716 36.7374 142.85 36.4964C142.929 37.5602 143.202 40.3636 142.289 41.2404C142.289 41.2404 141.661 40.7701 141.442 36.6834C141.573 36.9115 141.806 37.1548 141.918 37.2878C141.918 37.2878 141.766 38.5851 142.22 39.4998C142.221 39.4998 142.675 39.1452 142.395 37.1862ZM144.576 39.3279C143.806 38.383 143.576 35.5526 143.576 35.5526C143.419 35.4452 143.269 35.3267 143.129 35.1979C143.13 35.3017 143.126 35.4077 143.115 35.5147C143.227 37.2175 143.358 38.9733 143.876 39.8479C144.384 40.7052 145.316 41.1485 145.316 41.1485C146.192 39.5517 145.133 37.4056 144.251 35.9158C144.137 35.8714 144.026 35.8198 143.919 35.7612C144.229 36.9105 144.818 38.2749 144.576 39.3279ZM146.745 34.4141C146.751 34.5979 146.718 34.7449 146.693 34.8239C146.684 34.8531 146.673 34.8952 146.653 34.9374C147.385 35.678 147.93 36.3818 149.017 37.9321C150.104 39.4836 151.827 39.5441 151.827 39.5441C151.66 38.29 151.327 37.2964 150.407 36.2283C149.485 35.1579 148.306 34.1817 147.44 33.533C147.216 33.64 146.926 33.706 146.561 33.6617C146.532 33.6588 146.503 33.6548 146.474 33.6498C146.59 33.8044 146.66 33.96 146.701 34.106C147.356 34.492 149.26 35.4834 150.031 37.0791C150.031 37.0791 148.825 36.6932 146.745 34.4141ZM148.111 32.8508L148.04 32.7189C148.017 32.6767 147.992 32.6358 147.964 32.5967C148.669 32.88 151.192 33.8563 152.008 34.2887C152.824 34.7244 154.003 35.7104 154.646 37.7127C154.646 37.7127 152.945 37.8705 151.54 36.678C150.135 35.4834 148.499 33.8184 147.8 33.2876C147.859 33.2306 147.914 33.1692 147.964 33.1038C147.964 33.1038 149.864 34.8325 151.871 35.5774C151.871 35.5774 151.442 34.7774 150.648 34.1957C149.681 33.4908 148.958 33.253 148.111 32.8508ZM149.553 31.6724C149.526 31.6053 149.498 31.5389 149.467 31.4734C150.3 31.6486 152.38 31.9026 153.31 32.1946C154.239 32.4865 155.919 33.186 156.915 35.1363C156.915 35.1363 155.453 35.6012 152.69 34.266C149.929 32.933 149.065 32.6573 148.537 32.5146C148.958 32.4821 149.255 32.3362 149.411 32.24C150.514 32.7416 151.985 33.3395 153.448 33.3773C153.448 33.3773 152.725 32.854 151.968 32.5275C151.184 32.186 150.377 31.9002 149.553 31.6724ZM149.485 30.2669C149.214 30.3977 149.006 30.4637 148.653 30.5015C148.846 30.628 149.029 30.7912 149.192 31.0086C150.165 31.2961 151.824 31.6107 154.56 31.814C157.297 32.0172 158.756 31.4994 158.756 31.4994C157.804 30.9015 156.282 30.2939 155.255 30.0907C154.226 29.8874 151.526 29.908 150.342 29.7436C150.219 29.8457 150.089 29.9386 149.953 30.0215C150.949 30.1134 153.069 30.2161 154.165 30.7837C154.164 30.7837 152.144 31.0615 149.485 30.2669Z" fill="#0055A6"/>
<path fill-rule="evenodd" clip-rule="evenodd" d="M141.167 33.6368C141.081 33.5616 141 33.4807 140.925 33.3946C140.781 33.5784 140.31 34.1892 140.077 34.7947C139.897 35.3125 139.709 36.0174 139.615 36.4229C139.521 36.8251 139.241 37.6619 139.072 37.9516C139.072 37.9516 139.821 38.0478 140.375 37.384C140.92 36.731 141.107 36.0747 141.19 35.4001C141.251 34.8135 141.243 34.2217 141.167 33.6368ZM142.347 33.7384C142.272 33.849 142.175 33.9428 142.062 34.0141L141.962 34.0671L141.854 34.0325C141.765 34.003 141.679 33.9668 141.596 33.9244C141.489 34.2357 141.443 34.386 141.416 34.6509C141.38 35.0012 141.311 35.5547 141.441 36.0066C141.598 36.558 141.916 36.8932 142.095 37.1072C142.095 37.1072 142.586 36.5537 142.726 36.0964C142.873 35.6185 142.927 35.0617 142.745 34.493C142.662 34.2184 142.526 33.9623 142.347 33.7384ZM144.038 33.7903C143.614 33.7372 143.211 33.5747 142.87 33.3189C142.806 33.5006 142.709 33.7449 142.783 34.0898C142.855 34.4358 143.088 34.8196 143.424 35.0963C143.928 35.5104 144.607 35.9007 145.354 35.7807C145.354 35.7807 145.525 35.2066 144.038 33.7903ZM144.603 32.8292C144.544 33.3416 144.304 33.6627 144.286 33.6876C144.46 33.9017 145.091 35.0142 146.407 34.826C146.407 34.826 146.762 34.0703 145.888 33.4681C145.291 33.0605 145.012 32.9773 144.603 32.8292ZM144.488 31.8799C144.839 31.9708 145.295 32.0064 145.854 31.8702L146.004 31.8345L146.05 31.6832C146.725 32.2497 147.527 32.3427 147.803 32.853C147.803 32.853 147.466 33.4952 146.592 33.387C146.198 33.3449 145.817 33.2229 145.472 33.0284C145.128 32.8339 144.826 32.5711 144.587 32.2562C144.563 32.1286 144.53 32.0029 144.488 31.8799ZM146.007 31.0842C145.88 30.895 145.795 30.601 145.533 30.3037C146.123 30.1943 146.729 30.202 147.316 30.3264C148.124 30.4842 148.949 30.6788 149.361 31.9405C149.361 31.9405 148.842 32.3935 147.9 32.1967C147.1 32.0291 146.404 31.6756 146.007 31.0842ZM146.348 29.7144C146.552 29.5339 146.736 29.2993 146.872 28.9933L146.94 28.8366C147.642 28.5436 148.371 28.3922 149.084 28.6657C149.799 28.9403 149.987 29.2571 150.169 29.5296C150.169 29.5296 149.378 30.2096 148.466 30.2355C147.554 30.2647 146.713 29.9955 146.348 29.7144ZM146.135 28.2398C146.003 28.1869 145.868 28.146 145.729 28.1176C146.039 27.8376 146.342 27.4116 146.49 26.7716C146.816 26.8494 147.582 26.8494 147.917 26.7175C148.253 26.5856 148.915 26.577 149.429 26.9294C149.429 26.9294 149.26 27.856 148.088 28.1738C146.99 28.4711 146.583 28.3944 146.135 28.2398ZM146.557 26.4289L146.404 26.3283C146.382 26.3143 146.12 26.1499 145.673 26.1153C146.052 25.8267 146.945 25.0569 147.582 24.6882C148.272 24.2893 149.421 23.7617 150.007 23.6828C150.007 23.6828 149.459 25.1607 148.819 25.7553C148.158 26.3726 147.694 26.6019 146.557 26.4289ZM145.376 25.7499C145.655 25.3758 145.877 24.8623 146.04 24.2547C146.172 23.7606 146.473 22.5346 146.653 22.2168C146.834 21.8989 147.478 20.7864 148.741 20.4426C148.741 20.4426 149.077 21.8892 148.441 23.0363C147.892 24.0244 146.772 25.0666 145.376 25.7499ZM138.375 32.4832C138.214 32.6479 138.024 32.782 137.815 32.8789C137.815 32.8789 137.413 33.6671 137.899 34.6195C138.386 35.5731 138.801 36.5461 138.997 37.0845C138.997 37.0845 139.259 37.0467 139.55 35.5536C139.748 34.5417 139.997 34.2909 140.256 33.9449C140.088 34.0341 139.909 34.0999 139.724 34.1406L139.529 34.1752L139.438 33.9957C139.251 33.625 139.178 33.2075 139.229 32.7957C138.776 32.8065 138.534 32.5719 138.441 32.4508L138.419 32.4205L138.375 32.4832Z" fill="#0055A6"/>
<path fill-rule="evenodd" clip-rule="evenodd" d="M146.193 35.1276C147.129 36.0898 149.104 38.2445 148.918 40.5852C148.918 40.5852 147.084 39.996 146.329 38.6154C145.575 37.2369 145.107 36.372 144.789 36.0607C144.993 36.0888 145.195 36.0877 145.397 36.0563L145.562 36.0282C146.027 36.8975 146.948 38.3224 147.779 38.8186C147.779 38.8186 147.989 37.6661 145.551 35.3277C145.509 35.2155 145.458 35.107 145.398 35.0033C145.62 35.0833 145.875 35.133 146.162 35.1255L146.193 35.1276ZM132.029 16.4716C132.029 16.2997 132.671 16.1591 133.46 16.1591C134.251 16.1591 134.892 16.2997 134.892 16.4716C134.892 16.6446 134.251 16.784 133.46 16.784C132.671 16.784 132.029 16.6456 132.029 16.4716ZM127.168 18.1636C127.168 18.0684 127.581 17.9927 128.093 17.9927C128.601 17.9927 129.014 18.0684 129.014 18.1636C129.014 18.2576 128.601 18.3344 128.093 18.3344C127.581 18.3344 127.168 18.2576 127.168 18.1636ZM133.741 17.1613C133.742 17.1988 133.735 17.2361 133.722 17.2709C133.708 17.3058 133.687 17.3375 133.661 17.3644C133.635 17.3912 133.604 17.4126 133.569 17.4273C133.534 17.442 133.497 17.4497 133.46 17.45C133.422 17.4496 133.385 17.4418 133.351 17.427C133.316 17.4123 133.285 17.3909 133.259 17.3641C133.233 17.3372 133.212 17.3055 133.198 17.2707C133.184 17.236 133.178 17.1988 133.178 17.1613C133.178 17.0024 133.304 16.8727 133.46 16.8727C133.617 16.8727 133.741 17.0024 133.741 17.1613ZM131.926 16.1678C131.449 15.0002 131.132 14.1417 131.144 13.8531C131.152 13.6769 131.354 13.5482 131.543 13.4887C131.733 13.4282 131.902 13.4174 132.029 13.5158C132.277 13.7114 132.507 15.2845 132.593 15.9397C132.359 15.9757 132.133 16.0529 131.926 16.1678ZM132.796 15.9137C132.916 15.9007 133.042 15.8921 133.166 15.8889C133.09 15.264 132.88 14.2217 132.756 13.8109C132.632 13.4012 132.473 13.1049 132.212 13.0303C132.212 13.0303 132.415 13.6023 132.526 14.1947C132.636 14.7872 132.724 15.3526 132.796 15.9137ZM131.288 18.0014C131.812 17.8727 132.35 17.2965 132.35 17.2965C131.503 17.423 131.288 18.0014 131.288 18.0014ZM132.074 17.9484C131.343 18.3874 130.521 18.3182 130.521 18.3182C130.679 18.0219 130.828 17.7462 131.287 17.41C131.746 17.0727 132.492 16.9884 132.787 17.0305C132.722 17.2565 132.422 17.7398 132.074 17.9484ZM129.341 19.1863V19.1247C128.619 19.2187 127.769 19.1787 127.769 19.1787C127.815 19.4544 127.926 19.6631 128.116 19.7917C128.162 19.1928 129.341 19.1863 129.341 19.1863ZM126.95 18.3917C126.95 18.3917 127.86 18.7409 128.772 18.6944C129.682 18.6468 131.36 18.6274 131.904 18.3582C131.904 18.3582 131.813 18.7074 131.381 18.9106C131.381 18.9106 131.611 18.9106 131.834 19.1128C131.834 19.1128 131.703 19.4015 131.316 19.5561C131.316 19.5561 132.01 20.2956 132.75 20.2426C132.75 20.2426 132.409 20.6794 131.648 20.5107C130.89 20.3431 130.646 19.9063 130.515 19.7377C130.515 19.7377 130.613 20.1539 130.566 20.3237C130.566 20.3237 130.233 20.3031 129.971 19.9658C129.971 19.9658 130.162 20.3031 130.2 20.5853C130.2 20.5853 129.991 20.6123 129.616 20.3831C129.616 20.3831 129.694 20.5907 129.709 20.8329C129.709 20.8329 128.83 20.5431 128.404 20.1345C128.404 20.1345 128.397 20.4156 128.419 20.5788C128.418 20.5788 127.054 20.4372 126.95 18.3917ZM126.741 18.5344C126.772 18.9777 126.885 19.4155 127.035 19.7247C127.035 19.7247 126.497 19.3085 126.366 18.9593C126.235 18.6068 126.204 18.3657 126.741 18.5344ZM125.663 20.2145C125.693 20.2143 125.722 20.2083 125.749 20.1968C125.777 20.1853 125.802 20.1686 125.822 20.1475C125.843 20.1264 125.86 20.1014 125.871 20.0739C125.882 20.0464 125.888 20.0171 125.887 19.9874C125.888 19.9274 125.865 19.8696 125.823 19.8266C125.781 19.7837 125.723 19.7591 125.663 19.7582C125.603 19.7597 125.546 19.7845 125.505 19.8274C125.463 19.8703 125.44 19.9278 125.441 19.9874C125.441 20.1139 125.542 20.2145 125.663 20.2145ZM126.977 19.9464C127.337 20.1139 127.656 20.5107 127.656 20.5107C127.113 20.6394 126.869 20.8004 126.869 20.8004C126.599 20.5847 126.264 20.4676 125.918 20.4688C125.572 20.47 125.238 20.5893 124.97 20.8069C124.405 20.4772 124.295 19.6771 124.577 19.2533C124.859 18.8295 125.495 18.9041 125.796 18.9766C125.987 19.5971 126.654 19.7972 126.977 19.9464ZM127.776 20.6523C127.776 20.6523 128.157 21.1702 128.431 21.3983C128.431 21.3983 127.028 21.3853 126.675 22.6308C126.675 22.6308 126.19 21.8697 126.544 21.3724C126.925 20.835 127.277 20.768 127.776 20.6523Z" fill="#0055A6"/>
<path fill-rule="evenodd" clip-rule="evenodd" d="M129.316 20.9616C129.316 20.9616 129.769 21.0967 129.919 21.1367C129.919 21.1367 129.926 20.8675 129.913 20.7399C130.051 20.7724 130.22 20.821 130.365 20.8329C130.365 20.8329 130.817 21.8687 131.17 22.286C131.17 22.286 131.191 22.5152 130.994 22.8644C130.994 22.8644 130.739 22.2525 130.279 21.7627C130.018 21.4849 129.854 21.3454 129.316 20.9616ZM128.123 20.741C128.269 20.781 128.99 21.0135 129.341 21.2719C129.781 21.594 130.082 21.9638 130.036 22.6017C130.036 22.6017 129.683 22.0989 129.29 21.8697C128.979 21.6892 128.418 21.1843 128.123 20.741ZM128.133 16.0565C128.267 16.0565 128.526 16.1213 128.526 16.3408C128.526 16.5624 128.19 17.0954 128.099 17.3333H128.092C128.001 17.0954 127.664 16.5624 127.664 16.3408C127.664 16.1213 127.924 16.0565 128.058 16.0565H128.133ZM127.84 17.7766C127.776 17.4652 127.657 16.6587 127.469 16.4803C127.292 16.3105 127.031 16.2943 126.902 16.303C126.864 16.3064 126.828 16.3183 126.795 16.3377C126.763 16.3571 126.736 16.3835 126.715 16.415C126.694 16.4465 126.681 16.4823 126.676 16.5196C126.672 16.5569 126.675 16.5949 126.687 16.6306C126.741 16.8122 127.322 17.7063 127.397 17.8187C127.532 17.796 127.506 17.8036 127.84 17.7766ZM128.353 17.7766C128.419 17.4652 128.537 16.6587 128.724 16.4803C128.9 16.3105 129.164 16.2943 129.291 16.303C129.329 16.3062 129.365 16.318 129.398 16.3373C129.43 16.3567 129.458 16.3831 129.479 16.4147C129.499 16.4462 129.512 16.4821 129.517 16.5195C129.522 16.5569 129.518 16.5949 129.506 16.6306C129.453 16.8122 128.871 17.7063 128.795 17.8187C128.66 17.796 128.687 17.8036 128.353 17.7766ZM128.728 14.9721H128.275V14.4586H127.909V14.9721H127.454V15.2954H127.909V15.9008H128.275V15.2954H128.728V14.9721ZM123.24 18.2847C123.241 18.1863 123.248 18.0868 123.261 17.9895C123.295 17.7778 123.299 17.5623 123.271 17.3495C122.947 17.4771 122.725 17.5582 122.277 18.3009C122.276 18.3009 122.992 17.8479 123.24 18.2847ZM123.865 19.4631C123.875 19.2783 123.992 18.6966 124.141 18.2847C124.324 17.782 124.22 17.049 124 16.6057C123.787 16.1776 123.67 15.7732 123.708 15.3289C123.708 15.3289 123.282 15.4748 123.04 15.6283C122.999 16.144 123.292 16.6587 123.433 16.9527C123.597 17.2987 123.564 17.7495 123.527 18.0263C123.465 18.4944 123.558 18.995 123.865 19.4631ZM123.914 15.5235C123.896 15.4288 123.901 15.3314 123.929 15.2391C123.929 15.2391 124.595 14.5721 125.157 14.4586C125.276 14.4309 125.4 14.4328 125.518 14.4639C125.636 14.495 125.744 14.5544 125.833 14.6369C125.833 14.6369 125.636 14.6132 125.338 14.8618C125.04 15.1116 124.668 15.4132 124.386 15.4889C124.108 15.5635 124.047 15.5408 123.914 15.5235ZM125.888 14.6867C126.139 14.9451 126.351 15.2164 126.347 15.4521C126.343 15.6975 126.065 16.3095 125.92 16.5451C125.775 16.7808 125.563 17.0846 125.586 17.4576C125.599 17.6436 125.725 17.8349 125.875 17.9917C125.875 17.9917 125.058 17.7928 124.958 17.2749C124.869 16.8122 125.062 16.4868 125.193 16.2305C125.316 15.9905 125.693 15.4273 125.788 15.1937C125.875 14.9807 125.92 14.8034 125.888 14.6867ZM130.663 20.5205C130.827 21.1119 131.104 21.6686 131.377 22.1065C131.623 22.5033 131.779 23.153 131.756 23.3725C131.756 23.3725 132.127 22.5368 131.936 21.9454C131.79 21.4903 131.393 20.8091 130.663 20.5205ZM131.582 20.7162C131.582 20.7162 132.141 20.7237 132.404 20.901C132.742 21.1302 133.06 21.6276 133.184 22.2265C133.184 22.2265 132.618 22.126 132.339 21.8395C132.059 21.5508 131.714 21.1216 131.582 20.7162ZM128.682 21.7541C128.501 21.7815 128.322 21.8212 128.146 21.873C128.146 21.873 128.624 22.0157 128.861 22.2179C129.065 22.3898 129.241 22.6557 129.323 23.1033C129.438 23.7282 129.797 24.4028 129.905 24.605L129.948 24.5964C129.881 24.1661 130.144 23.273 130.209 23.1455C130.209 23.1455 129.832 22.9011 129.659 22.6471C129.532 22.4611 129.306 22.1508 128.682 21.7541ZM131.165 23.0957C131.303 23.4244 131.674 24.0061 131.5 24.6137C131.327 25.2213 130.942 25.4829 130.703 25.9964C130.703 25.9964 130.513 25.0688 130.557 24.352C130.596 23.6352 130.851 23.3574 131.165 23.0957ZM132.24 23.1206C132.24 23.1206 132.797 24.2288 132.898 24.6645C132.995 25.0937 132.905 25.3813 132.716 25.6418C132.526 25.9024 132.206 26.1824 131.912 26.7305C131.912 26.7305 131.568 26.2667 131.524 26.0213C131.483 25.777 131.549 25.1942 131.625 24.9499C131.698 24.7066 131.992 23.9217 132.24 23.1206ZM132.526 26.6602C132.403 26.7954 131.752 27.5987 131.664 27.8333C131.577 28.0679 131.427 28.5101 131.628 28.8171C131.832 29.1242 132.294 29.6161 132.701 29.8247C132.701 29.8247 132.261 29.1198 132.305 28.5414C132.335 28.1728 132.612 27.843 132.665 27.617C132.718 27.3911 132.684 27.0116 132.526 26.6602ZM131.252 26.2159C131.352 26.3586 131.526 26.7035 131.549 27.0419C131.572 27.3727 131.521 27.6398 131.344 28.1263C131.135 28.6747 130.892 29.2098 130.616 29.7285C130.616 29.7285 130.31 29.2798 130.142 28.8798C130.142 28.8798 130.62 28.2084 130.823 27.7327C131.059 27.1738 131.159 26.6559 131.252 26.2159ZM131.029 25.9564C131.029 25.9564 130.824 27.5338 129.92 28.7068C129.309 29.5004 128.809 29.7761 128.481 29.7761C127.984 29.7761 127.484 29.3512 127.317 28.8647C127.149 28.3782 127.202 27.6235 127.522 27.3554C127.522 27.3554 127.821 28.3025 128.457 28.3371C129.177 28.3782 130.103 27.5522 131.029 25.9564Z" fill="#0055A6"/>
<path fill-rule="evenodd" clip-rule="evenodd" d="M130.287 25.2969C130.362 25.5791 130.386 26.0126 130.287 26.4213C130.211 26.7305 130.027 27.1381 129.673 27.364C129.369 27.5597 128.647 27.6073 128.372 26.9078C128.371 26.9078 129.687 27.0094 130.287 25.2969ZM132.441 31.6615C132.622 32.1351 133.267 32.7362 133.264 33.1059C133.251 34.0887 132.835 34.6898 132.735 35.0141C132.735 35.0141 131.969 34.3892 131.832 33.6724C131.763 33.3059 131.844 32.2043 132.441 31.6615ZM131.584 32.3545C131.674 32.1005 131.956 31.4075 132.282 31.1642C132.282 31.1642 132.701 29.9036 131.359 29.1306C131.359 29.1306 130.808 29.882 130.661 30.5869C130.515 31.2918 131.247 31.7188 131.584 32.3545ZM129.907 29.1771C129.692 29.442 129.388 29.8117 129.152 29.9274C129.152 29.9274 129.073 30.4907 129.118 30.8637C129.186 31.4183 129.534 31.9859 129.682 32.401C129.682 32.401 130.268 31.615 130.336 31.1523C130.404 30.6896 130.392 30.309 130.414 30.0896C130.413 30.0896 130.087 29.5458 129.907 29.1771ZM128.364 31.8724C128.198 31.614 127.659 30.6593 127.652 29.9674C127.652 29.9674 128.314 30.3274 128.867 30.0636C128.867 30.0636 128.941 30.9642 128.834 31.2691C128.746 31.5167 128.632 31.6648 128.364 31.8724ZM128.515 32.0659C128.624 31.9707 128.887 31.721 128.994 31.5891C128.994 31.5891 129.432 32.414 129.508 32.6551C129.508 32.6551 129.288 32.7124 129.047 32.5329C128.855 32.3955 128.676 32.2391 128.515 32.0659ZM130.547 31.5815C130.493 31.7902 129.784 32.801 129.663 32.9254C129.663 32.9254 129.718 33.2919 129.98 33.8184C130.242 34.3449 130.608 34.7125 130.803 34.8995C130.803 34.8995 131.24 34.1157 131.37 33.7708C131.518 33.3762 131.501 32.987 131.437 32.8432C131.29 32.5027 130.775 32.0107 130.547 31.5815ZM131.614 34.2281C131.769 34.5546 132.242 35.0866 132.316 35.5093C132.373 35.8412 132.321 36.1115 132.234 36.3407C132.147 36.5688 131.863 37.0131 131.672 37.3537C131.672 37.3537 131.025 36.7266 130.882 36.2791C130.774 35.9417 130.815 35.4617 130.971 35.1644C131.126 34.8649 131.465 34.5384 131.614 34.2281ZM129.777 34.1373C129.946 34.5125 130.345 34.8876 130.438 35.2174C130.547 35.6055 130.58 35.8542 130.398 36.305C130.236 36.7039 130.038 36.9353 129.971 37.1775C129.971 37.1775 129.446 36.4801 129.359 36.1893C129.27 35.8974 129.243 35.4185 129.351 35.1147C129.46 34.8098 129.65 34.413 129.777 34.1373ZM132.369 36.7969C132.369 36.7969 131.463 37.9191 131.485 38.5138C131.512 39.2565 131.991 39.7484 132.059 40.2047C132.059 40.2047 132.532 39.6533 132.713 39.2835C132.916 38.8673 133.071 38.5138 133.018 38.0435C132.963 37.5732 132.84 37.2694 132.369 36.7969ZM130.701 36.6866C130.844 36.9007 131.25 37.6348 131.134 38.0716C131.02 38.5073 130.574 39.1235 130.426 39.3873C130.426 39.3873 130.067 38.6316 129.986 38.2856C129.906 37.9397 129.98 37.3797 130.701 36.6866ZM139.753 18.1636C139.753 18.0684 139.34 17.9927 138.83 17.9927C138.321 17.9927 137.908 18.0684 137.908 18.1636C137.908 18.2576 138.321 18.3344 138.83 18.3344C139.34 18.3344 139.753 18.2576 139.753 18.1636ZM133.469 15.2575C133.53 14.8337 134.009 13.932 134.009 13.5363C134.011 13.3893 133.954 13.2476 133.851 13.1422C133.748 13.0368 133.608 12.9764 133.461 12.9741C133.313 12.9764 133.173 13.0368 133.07 13.1422C132.968 13.2476 132.911 13.3893 132.913 13.5363C132.913 13.932 133.392 14.8337 133.451 15.2575H133.469ZM134.997 16.1678C135.475 15.0002 135.791 14.1417 135.779 13.8531C135.769 13.6769 135.57 13.5482 135.379 13.4887C135.188 13.4282 135.019 13.4174 134.895 13.5158C134.647 13.7115 134.416 15.2845 134.331 15.9397C134.571 15.9883 134.717 16.0186 134.997 16.1678ZM134.127 15.9137C134.004 15.9005 133.88 15.8922 133.756 15.8889C133.831 15.264 134.041 14.2217 134.166 13.8109C134.289 13.4012 134.449 13.1049 134.71 13.0303C134.71 13.0303 134.506 13.6023 134.396 14.1947C134.289 14.765 134.2 15.3383 134.127 15.9137ZM134.573 17.2976C134.573 17.2976 135.108 17.8738 135.635 18.0025C135.636 18.0014 135.417 17.423 134.573 17.2976ZM134.133 17.0305C134.427 16.9884 135.177 17.0727 135.636 17.41C136.094 17.7473 136.244 18.0219 136.402 18.3182C136.402 18.3182 135.579 18.3874 134.846 17.9484C134.502 17.7398 134.201 17.2565 134.133 17.0305ZM138.806 19.7918C138.997 19.6631 139.107 19.4544 139.151 19.1788C139.151 19.1788 138.301 19.2188 137.581 19.1247V19.1863C137.581 19.1863 138.76 19.1928 138.806 19.7918ZM138.505 20.5788C138.526 20.4167 138.519 20.1345 138.519 20.1345C138.092 20.5442 137.214 20.8329 137.214 20.8329C137.227 20.5907 137.305 20.3831 137.305 20.3831C136.933 20.6113 136.722 20.5853 136.722 20.5853C136.762 20.3021 136.952 19.9658 136.952 19.9658C136.882 20.0623 136.793 20.1437 136.69 20.2051C136.588 20.2666 136.474 20.3069 136.355 20.3237C136.31 20.155 136.408 19.7377 136.408 19.7377C136.277 19.9064 136.034 20.3431 135.274 20.5107C134.513 20.6794 134.172 20.2426 134.172 20.2426C134.915 20.2956 135.608 19.5561 135.608 19.5561C135.387 19.4752 135.203 19.3179 135.089 19.1128C135.313 18.9106 135.542 18.9106 135.542 18.9106C135.108 18.7074 135.017 18.3582 135.017 18.3582C135.562 18.6274 137.239 18.6468 138.152 18.6944C139.062 18.7409 139.974 18.3917 139.974 18.3917C139.868 20.4372 138.505 20.5788 138.505 20.5788ZM140.183 18.5344C140.149 18.9777 140.039 19.4155 139.888 19.7247C139.888 19.7247 140.424 19.3085 140.555 18.9593C140.688 18.6068 140.72 18.3657 140.183 18.5344ZM141.48 19.9874C141.48 19.9578 141.475 19.9283 141.464 19.9007C141.453 19.8731 141.436 19.848 141.416 19.8267C141.395 19.8054 141.37 19.7884 141.343 19.7767C141.315 19.7649 141.286 19.7587 141.256 19.7582C141.196 19.7594 141.139 19.7841 141.098 19.827C141.056 19.8699 141.033 19.9276 141.033 19.9874C141.033 20.1139 141.135 20.2145 141.256 20.2145C141.286 20.2143 141.315 20.2083 141.343 20.1968C141.37 20.1853 141.395 20.1685 141.415 20.1474C141.436 20.1263 141.453 20.1013 141.464 20.0738C141.475 20.0464 141.48 20.017 141.48 19.9874ZM141.125 18.9777C141.428 18.9052 142.063 18.8306 142.344 19.2544C142.627 19.6782 142.515 20.4783 141.953 20.808C141.953 20.808 141.093 20.048 140.052 20.8015C140.052 20.8015 139.808 20.6404 139.264 20.5118C139.264 20.5118 139.586 20.115 139.946 19.9474C140.267 19.7972 140.935 19.5972 141.125 18.9777ZM139.148 20.6523C139.148 20.6523 138.767 21.1702 138.493 21.3983C138.493 21.3983 139.896 21.3853 140.249 22.6308C140.249 22.6308 140.733 21.8697 140.379 21.3724C139.998 20.8351 139.645 20.768 139.148 20.6523Z" fill="#0055A6"/>
<path fill-rule="evenodd" clip-rule="evenodd" d="M137.608 20.9616C137.608 20.9616 137.155 21.0967 137.004 21.1367C137.004 21.1367 136.997 20.8675 137.011 20.74C136.873 20.7724 136.702 20.821 136.558 20.8329C136.558 20.8329 136.106 21.8687 135.753 22.286C135.753 22.286 135.733 22.5152 135.93 22.8644C135.93 22.8644 136.184 22.2525 136.644 21.7627C136.903 21.4849 137.07 21.3454 137.608 20.9616ZM138.801 20.741C138.654 20.781 137.931 21.0135 137.581 21.2719C137.142 21.5941 136.839 21.9638 136.885 22.6017C136.885 22.6017 137.241 22.0989 137.632 21.8697C137.944 21.6892 138.505 21.1843 138.801 20.741ZM138.791 16.0565C138.656 16.0565 138.398 16.1214 138.398 16.3408C138.398 16.5625 138.734 17.0955 138.823 17.3333H138.832C138.921 17.0955 139.258 16.5625 139.258 16.3408C139.258 16.1214 138.999 16.0565 138.864 16.0565H138.791ZM139.082 17.7766C139.146 17.4652 139.265 16.6587 139.453 16.4803C139.63 16.3106 139.89 16.2943 140.021 16.303C140.059 16.3066 140.095 16.3186 140.127 16.3381C140.159 16.3575 140.187 16.384 140.207 16.4154C140.228 16.4469 140.241 16.4825 140.246 16.5198C140.251 16.557 140.248 16.5949 140.236 16.6306C140.182 16.8122 139.6 17.7063 139.524 17.8187C139.389 17.796 139.417 17.8036 139.082 17.7766ZM138.569 17.7766C138.505 17.4652 138.387 16.6587 138.198 16.4803C138.021 16.3106 137.761 16.2943 137.629 16.303C137.592 16.3068 137.556 16.3189 137.524 16.3384C137.492 16.3579 137.465 16.3844 137.444 16.4158C137.424 16.4472 137.411 16.4828 137.406 16.52C137.401 16.5572 137.404 16.5949 137.416 16.6306C137.471 16.8122 138.051 17.7063 138.127 17.8187C138.262 17.796 138.235 17.8036 138.569 17.7766ZM138.196 14.9721H138.648V14.4586H139.013V14.9721H139.468V15.2954H139.013V15.9008H138.648V15.2954H138.196V14.9721ZM132.759 11.932H133.211V11.4163H133.577V11.932H134.031V12.2552H133.577V12.8596H133.211V12.2552H132.759V11.932ZM143.682 18.2847C143.682 18.1863 143.674 18.0869 143.66 17.9896C143.628 17.7777 143.624 17.5624 143.65 17.3495C143.976 17.4771 144.196 17.5582 144.644 18.3009C144.645 18.3009 143.931 17.8479 143.682 18.2847Z" fill="#0055A6"/>
<path fill-rule="evenodd" clip-rule="evenodd" d="M143.056 19.4631C143.047 19.2782 142.929 18.6966 142.781 18.2847C142.599 17.782 142.703 17.0489 142.923 16.6057C143.134 16.1775 143.253 15.7732 143.214 15.3289C143.214 15.3289 143.639 15.4748 143.881 15.6283C143.922 16.144 143.629 16.6587 143.49 16.9527C143.324 17.2987 143.358 17.7495 143.395 18.0263C143.458 18.4944 143.363 18.995 143.056 19.4631ZM143.009 15.5235C143.028 15.4288 143.022 15.3311 142.993 15.2391C142.993 15.2391 142.327 14.5721 141.766 14.4585C141.647 14.431 141.523 14.4329 141.405 14.464C141.287 14.4951 141.178 14.5544 141.089 14.6369C141.089 14.6369 141.286 14.6131 141.584 14.8618C141.883 15.1116 142.253 15.4132 142.536 15.4889C142.814 15.5635 142.876 15.5408 143.009 15.5235ZM141.033 14.6867C140.782 14.9451 140.571 15.2164 140.575 15.4521C140.581 15.6975 140.856 16.3094 141.002 16.5451C141.148 16.7808 141.361 17.0846 141.335 17.4576C141.32 17.6436 141.197 17.8349 141.049 17.9917C141.049 17.9917 141.865 17.7928 141.965 17.2749C142.053 16.8122 141.861 16.4868 141.73 16.2305C141.606 15.9905 141.231 15.4272 141.135 15.1937C141.05 14.9807 141.004 14.8034 141.033 14.6867ZM136.262 20.5205C136.099 21.0796 135.858 21.6134 135.547 22.1065C135.299 22.5033 135.143 23.153 135.168 23.3725C135.168 23.3725 134.798 22.5368 134.988 21.9454C135.135 21.4902 135.528 20.8091 136.262 20.5205ZM135.339 20.7162C135.339 20.7162 134.78 20.7237 134.518 20.901C134.181 21.1302 133.861 21.6275 133.737 22.2265C133.737 22.2265 134.304 22.126 134.583 21.8395C134.864 21.5508 135.209 21.1216 135.339 20.7162ZM138.243 21.754C138.349 21.7638 138.636 21.8308 138.776 21.873C138.776 21.873 138.299 22.0157 138.062 22.2178C137.858 22.3897 137.684 22.6557 137.601 23.1033C137.486 23.7282 137.127 24.4028 137.019 24.605L136.975 24.5963C137.042 24.1661 136.778 23.273 136.713 23.1455C136.713 23.1455 137.092 22.9011 137.266 22.6471C137.391 22.4611 137.619 22.1508 138.243 21.754ZM135.76 23.0957C135.62 23.4244 135.251 24.006 135.422 24.6136C135.594 25.2212 135.982 25.4829 136.219 25.9964C136.219 25.9964 136.41 25.0688 136.368 24.352C136.326 23.6352 136.072 23.3574 135.76 23.0957ZM133.47 24.7953C133.492 24.4417 134.297 23.5844 134.257 23.1206C134.215 22.6568 133.614 22.3281 133.466 22.2611H133.459C133.31 22.3281 132.71 22.6568 132.669 23.1206C132.628 23.5844 133.431 24.4417 133.456 24.7953H133.47ZM134.683 23.1206C134.683 23.1206 134.125 24.2288 134.025 24.6645C133.929 25.0937 134.018 25.3812 134.208 25.6418C134.397 25.9034 134.717 26.1824 135.013 26.7305C135.013 26.7305 135.357 26.2667 135.399 26.0213C135.439 25.7769 135.374 25.1942 135.299 24.9499C135.226 24.7066 134.929 23.9217 134.683 23.1206ZM133.467 27.4095C133.723 27.1835 133.948 26.8494 134.02 26.6505C134.089 26.4516 134.111 26.1607 133.942 25.9391C133.738 25.6732 133.485 25.3769 133.467 25.1358H133.454C133.435 25.378 133.184 25.6732 132.981 25.9391C132.813 26.1607 132.832 26.4516 132.904 26.6505C132.973 26.8494 133.202 27.1835 133.458 27.4095H133.467ZM134.398 26.6602C134.519 26.7954 135.17 27.5987 135.258 27.8333C135.346 28.0679 135.495 28.51 135.292 28.8171C135.09 29.1241 134.629 29.6161 134.223 29.8247C134.223 29.8247 134.661 29.1198 134.618 28.5414C134.589 28.1727 134.309 27.843 134.256 27.617C134.203 27.3911 134.239 27.0116 134.398 26.6602ZM135.672 26.2159C135.507 26.4631 135.405 26.7465 135.374 27.0419C135.351 27.3727 135.403 27.6397 135.581 28.1262C135.803 28.7393 136.145 29.4225 136.308 29.7285C136.308 29.7285 136.613 29.2798 136.781 28.8798C136.781 28.8798 136.304 28.2084 136.101 27.7327C135.863 27.1738 135.764 26.6559 135.672 26.2159ZM135.894 25.9564C135.894 25.9564 136.099 27.5338 137.003 28.7068C137.616 29.5004 138.113 29.7761 138.443 29.7761C138.94 29.7761 139.438 29.3512 139.607 28.8647C139.773 28.3782 139.72 27.6235 139.4 27.3554C139.4 27.3554 139.102 28.3025 138.466 28.3371C137.746 28.3782 136.818 27.5522 135.894 25.9564Z" fill="#0055A6"/>
<path fill-rule="evenodd" clip-rule="evenodd" d="M136.636 25.2969C136.548 25.6665 136.548 26.0517 136.636 26.4213C136.711 26.7305 136.896 27.1381 137.247 27.364C137.554 27.5597 138.273 27.6073 138.548 26.9078C138.549 26.9078 137.233 27.0094 136.636 25.2969ZM134.021 29.4874C134.189 29.2236 134.348 28.736 134.257 28.39C134.146 27.9619 133.919 27.7889 133.784 27.5219C133.671 27.6278 133.603 27.71 133.468 27.7922H133.46C133.323 27.71 133.252 27.6278 133.139 27.5219C133.004 27.7889 132.777 27.9619 132.665 28.39C132.577 28.736 132.734 29.2236 132.903 29.4874C133.117 29.8225 133.275 29.8917 133.461 29.9825C133.648 29.8917 133.806 29.8225 134.021 29.4874ZM133.461 32.6432C133.552 32.227 134.404 31.4183 134.324 30.9783C134.209 30.3199 133.794 30.4593 133.468 30.1804H133.461C133.133 30.4582 132.716 30.3188 132.599 30.9783C132.522 31.4172 133.366 32.2259 133.458 32.6432H133.461ZM134.483 31.6615C134.301 32.1351 133.655 32.7362 133.659 33.1059C133.67 34.0887 134.087 34.6898 134.188 35.0141C134.188 35.0141 134.954 34.3892 135.088 33.6725C135.158 33.306 135.078 32.2043 134.483 31.6615ZM135.337 32.3546C135.246 32.1005 134.965 31.4075 134.639 31.1642C134.639 31.1642 134.222 29.9036 135.563 29.1306C135.563 29.1306 136.114 29.882 136.263 30.5869C136.408 31.2918 135.678 31.7188 135.337 32.3546ZM137.015 29.1771C137.229 29.442 137.534 29.8117 137.771 29.9274C137.771 29.9274 137.849 30.4907 137.804 30.8637C137.736 31.4183 137.387 31.9859 137.241 32.401C137.241 32.401 136.654 31.6151 136.585 31.1523C136.518 30.6896 136.53 30.309 136.507 30.0896C136.507 30.0896 136.835 29.5458 137.015 29.1771ZM138.56 31.8724C138.725 31.614 139.264 30.6593 139.271 29.9674C139.271 29.9674 138.609 30.3274 138.055 30.0636C138.055 30.0636 137.983 30.9642 138.09 31.2691C138.177 31.5167 138.292 31.6648 138.56 31.8724ZM138.408 32.0659C138.238 31.9169 138.078 31.7577 137.928 31.5891C137.928 31.5891 137.49 32.414 137.414 32.6551C137.414 32.6551 137.634 32.7124 137.875 32.5329C138.115 32.3524 138.17 32.307 138.408 32.0659ZM136.376 31.5815C136.429 31.7902 137.139 32.8011 137.258 32.9254C137.258 32.9254 137.205 33.2919 136.941 33.8184C136.731 34.2236 136.453 34.5894 136.118 34.8995C136.118 34.8995 135.682 34.1157 135.551 33.7708C135.403 33.3762 135.422 32.987 135.485 32.8432C135.633 32.5027 136.146 32.0108 136.376 31.5815ZM134.115 36.4802C134.216 36.1937 134.212 35.8607 134.101 35.6336C133.973 35.3698 133.514 34.7201 133.46 34.532C133.403 34.7201 132.949 35.3688 132.82 35.6336C132.708 35.8607 132.705 36.1947 132.807 36.4802C132.977 36.9591 133.385 37.2878 133.453 37.5656H133.466C133.535 37.2878 133.943 36.9591 134.115 36.4802ZM135.31 34.2282C135.153 34.5547 134.682 35.0866 134.608 35.5093C134.55 35.8412 134.602 36.1115 134.688 36.3407C134.775 36.5688 135.061 37.0132 135.25 37.3537C135.25 37.3537 135.897 36.7267 136.039 36.2791C136.148 35.9418 136.108 35.4617 135.953 35.1644C135.795 34.8649 135.458 34.5384 135.31 34.2282ZM137.145 34.1373C136.975 34.5125 136.576 34.8876 136.484 35.2174C136.376 35.6055 136.342 35.8542 136.525 36.305C136.685 36.704 136.882 36.9353 136.95 37.1775C136.95 37.1775 137.475 36.4802 137.564 36.1893C137.652 35.8985 137.678 35.4185 137.572 35.1147C137.462 34.8098 137.273 34.413 137.145 34.1373ZM133.461 42.927C133.495 42.5853 134.184 41.528 134.216 40.4058C134.233 39.8436 133.744 38.9657 133.468 38.6316H133.453C133.175 38.9657 132.691 39.8436 132.706 40.4058C132.74 41.528 133.425 42.5842 133.461 42.927ZM134.554 36.7969C134.554 36.7969 135.46 37.9192 135.438 38.5138C135.412 39.2565 134.931 39.7484 134.864 40.2047C134.864 40.2047 134.389 39.6533 134.21 39.2835C134.007 38.8673 133.852 38.5138 133.908 38.0435C133.96 37.5732 134.081 37.2694 134.554 36.7969ZM136.22 36.6867C136.078 36.9007 135.674 37.6348 135.789 38.0716C135.903 38.5073 136.35 39.1235 136.498 39.3873C136.498 39.3873 136.855 38.6316 136.936 38.2857C137.017 37.9397 136.942 37.3797 136.22 36.6867Z" fill="#0055A6"/>
<path fill-rule="evenodd" clip-rule="evenodd" d="M134.08 44.7271C134.136 43.8546 134.618 43.3324 134.7 42.8784C134.795 42.38 134.764 41.9032 134.385 41.3269C134.156 42.151 133.853 42.9529 133.48 43.7227L133.46 43.7671L133.441 43.7227C133.067 42.9531 132.764 42.1512 132.536 41.3269C132.159 41.9021 132.125 42.38 132.219 42.8784C132.305 43.3324 132.786 43.8546 132.839 44.7271C132.894 45.6007 131.935 45.9337 131.935 45.9337C132.259 46.0515 132.628 46.1045 133.212 45.5369C133.319 45.4331 133.4 45.3206 133.46 45.2006C133.521 45.3196 133.602 45.4331 133.709 45.5369C134.293 46.1045 134.66 46.0526 134.983 45.9337C134.984 45.9337 134.026 45.5996 134.08 44.7271ZM131.066 38.9247C131.167 39.2512 131.465 39.8523 131.503 40.0371C131.575 40.3831 131.478 40.8015 130.864 41.2469C130.864 41.2469 130.465 40.9615 130.307 40.5864C130.161 40.2339 130.245 39.9863 130.4 39.8047C130.553 39.622 130.913 39.1993 131.066 38.9247ZM132.358 40.2166C132.358 40.3918 132.231 41.3788 131.958 41.8686C131.575 42.5573 131.009 43.0697 130.516 43.0697C130.058 43.0697 129.962 42.7897 129.734 42.6751C129.734 42.6751 129.85 42.0772 130.364 41.9205C130.996 41.728 131.966 40.9496 132.358 40.2166Z" fill="#0055A6"/>
<path fill-rule="evenodd" clip-rule="evenodd" d="M130.711 41.475C130.604 41.3918 130.511 41.3334 130.385 41.1821C130.385 41.1821 129.896 41.368 129.496 41.6448C129.094 41.9216 128.701 42.3919 128.489 42.6394C128.489 42.6394 129.09 42.7994 129.47 42.6211C129.47 42.6211 129.61 42.0318 130.037 41.7691C130.132 41.7118 130.432 41.6221 130.711 41.475ZM130.209 40.9691C130.117 40.821 129.926 40.5464 129.967 40.1182C129.967 40.1182 129.124 40.6653 128.869 40.8761C128.614 41.0869 128.088 41.6459 127.971 41.8297C127.971 41.8297 128.609 41.687 129.1 41.5194C129.639 41.3345 130.012 41.0869 130.209 40.9691ZM128.778 41.9086C128.324 42.0729 127.299 42.2448 126.871 42.3746C126.442 42.5043 126.132 42.7324 125.722 43.1919C125.722 43.1919 126.35 43.3703 126.687 43.4816C126.687 43.4816 127.222 43.1065 127.807 42.8762C128.189 42.7259 128.374 42.314 128.778 41.9086ZM127.828 45.006C127.926 44.8958 128.049 44.7671 127.954 44.5066C127.886 44.3152 127.516 44.1065 127.292 43.9941C126.925 43.8157 125.907 43.5357 125.576 43.4351C125.576 43.4351 125.411 43.6352 125.322 43.8449C125.283 43.926 125.335 44.0092 125.479 44.0363C125.762 44.0849 126.444 43.9552 126.61 44.0654C126.79 44.1844 126.727 44.3465 126.727 44.5055C126.727 44.5055 127.038 44.3109 127.233 44.3541C127.506 44.4179 127.671 44.5476 127.828 45.006ZM126.921 43.5541C126.995 43.5789 127.391 43.7043 127.778 43.9552C127.778 43.9552 127.95 43.8881 128.034 43.7249C128.116 43.5692 128.465 43.0416 128.783 42.9713C128.783 42.9713 128.511 42.9443 128.357 42.8946C128.357 42.8946 128.024 42.9822 127.79 43.0795C127.556 43.1768 127.262 43.326 126.921 43.5541ZM129.547 42.887C129.484 42.9162 129.382 42.9659 129.144 42.9767C129.144 42.9767 128.247 43.6146 128.143 44.2492C128.053 44.7941 128.333 45.0536 128.467 45.1228C128.602 45.192 129.228 45.4569 129.635 44.5974C129.635 44.5974 128.94 44.8309 128.753 44.4871C128.565 44.1455 128.869 43.647 129.059 43.5033C129.306 43.3141 129.752 43.1854 130.021 43.2351C130.021 43.2351 129.805 43.0222 129.547 42.887Z" fill="#0055A6"/>
<path fill-rule="evenodd" clip-rule="evenodd" d="M123.681 50.1825C123.79 49.7154 123.911 49.2224 124.119 48.7694C124.523 47.8916 125.516 45.5487 127.585 45.1358C127.781 45.0979 127.362 44.6038 127.176 44.6276C126.992 44.6514 126.621 44.8957 126.459 45.0071C126.459 45.0071 126.459 44.5076 126.453 44.419C126.448 44.3292 126.372 44.2957 126.291 44.3C126.213 44.3011 125.71 44.2957 125.553 44.4838C125.081 45.0439 124.284 46.551 123.835 47.6743C123.382 48.7954 123.073 49.1381 122.597 48.9651C122.121 48.7954 121.837 48.2343 121.005 48.4051C120.719 48.4624 120.4 48.6613 120.15 48.9543C120.219 49.0905 120.307 49.257 120.696 49.257C121.083 49.257 121.823 49.4246 122.237 49.7219C122.651 50.016 123.085 50.1155 123.681 50.1825ZM131.944 42.9227C131.99 43.2838 132.16 43.6243 132.35 43.9768C132.35 43.9768 131.719 46.9618 129.44 47.1932C129.44 47.1932 129.487 46.5747 130.161 46.1023C130.836 45.6309 131.846 44.9011 131.771 43.7908C131.771 43.7908 131.591 43.8287 131.268 44.2449C130.944 44.6611 130.233 45.8623 129.134 45.8709C129.134 45.8709 129.295 45.3076 129.782 44.9833C130.27 44.6611 130.891 44.2449 131.17 43.7443C131.448 43.2459 131.747 43.0156 131.944 42.9227ZM130.869 53.7902L132.255 55.7817L133.305 53.8627L132.933 53.1783C132.659 53.6854 132.365 54.2303 132.197 54.5254L131.262 53.1783L130.869 53.7902Z" fill="#0055A6"/>
<path fill-rule="evenodd" clip-rule="evenodd" d="M130.513 52.1037C129.163 50.163 127.494 47.7575 127.325 47.5153L127.849 47.1294L126.195 46.4807L126.226 48.3262L126.785 47.9143L130.123 52.7156L130.513 52.1037ZM119.113 41.1972C119.523 40.7409 120.215 41.1334 120.912 41.795C121.611 42.4524 122.052 43.127 121.644 43.5843C121.267 44.006 120.543 43.647 119.845 42.9875C119.146 42.3291 118.705 41.6534 119.113 41.1972Z" fill="#0055A6"/>
<path fill-rule="evenodd" clip-rule="evenodd" d="M120.241 49.3068C120.218 49.2882 120.196 49.2688 120.175 49.2484C119.805 48.9143 119.593 48.4019 119.593 47.8408C119.593 46.7618 120.448 45.8839 121.499 45.8839C122.55 45.8839 123.403 46.7618 123.403 47.8408C123.403 47.9878 123.376 48.2246 123.376 48.2246C123.464 48.057 123.776 47.311 123.841 47.1759C123.556 46.1218 122.614 45.3477 121.5 45.3477C120.541 45.3477 119.711 45.9207 119.316 46.751C119.467 45.765 119.943 44.8774 120.284 44.5487C120.689 44.1563 121.379 44.0309 121.379 44.0309C120.928 44.1054 120.331 43.82 119.664 43.1919C119.03 42.594 118.704 42.074 118.685 41.6372C118.726 42.2535 118.707 42.5983 118.537 43.0989C118.305 43.7811 117.676 45.0374 117.9 46.4558C118.025 47.2353 118.575 48.3943 119.496 49.3425C119.691 49.5555 119.767 49.8701 119.788 50.0355C119.788 50.0355 121.148 50.0355 121.47 50.0636C121.47 50.0636 121.792 50.0355 121.787 49.8268C121.782 49.6214 121.602 49.5684 121.441 49.5684C121.281 49.5684 120.603 49.5836 120.241 49.3068ZM127.748 49.7803C126.875 50.1057 126.004 50.2755 125.178 50.4052C124.66 50.4888 124.135 50.5185 123.61 50.4939C123.626 50.5903 123.611 50.6891 123.569 50.7771C123.569 50.7771 123.671 50.8971 123.671 51.0323C124.183 51.0539 124.716 51.0215 125.26 50.9361C126.162 50.7934 127.113 50.6052 128.068 50.2355L127.748 49.7803ZM129.181 49.7122C130.338 49.0614 131.47 48.0613 132.488 46.4612L132.672 46.1466C132.394 46.2731 132.035 46.1866 132.035 46.1866C132.019 46.2126 131.974 46.2839 131.951 46.3239C131 47.7651 129.948 48.6743 128.871 49.2679L129.181 49.7122ZM121.542 50.2225C121.384 50.1966 120.876 50.2095 120.569 50.2582C120.237 50.3122 119.857 50.3825 119.818 50.5706C119.779 50.7501 119.901 50.9415 120.068 51.2128C120.174 51.3804 120.42 51.2842 120.559 51.2323C120.697 51.1804 121.479 50.749 121.606 50.6074C121.733 50.4636 121.784 50.2647 121.542 50.2225ZM122.342 50.7534C122.268 50.7072 122.184 50.6785 122.097 50.6693C122.01 50.6601 121.922 50.6708 121.84 50.7004C121.629 50.7825 120.856 51.2507 120.806 51.4691C120.754 51.6864 120.859 51.7988 120.979 51.8475C121.097 51.8961 121.243 51.9415 121.349 51.9523C121.441 51.9555 121.533 51.9369 121.616 51.8982C121.699 51.8595 121.772 51.8018 121.829 51.7296C121.929 51.6053 122.289 51.1566 122.342 51.055C122.393 50.9544 122.422 50.8074 122.342 50.7534ZM122.435 51.2453C122.275 51.4333 122.121 51.6269 121.974 51.8258C121.938 51.8907 121.993 51.9891 122.091 51.9794C122.188 51.9696 122.718 51.9134 123.024 51.6983C123.329 51.4853 123.533 51.0734 123.322 50.9231C123.114 50.7706 122.79 50.8388 122.435 51.2453ZM122.606 50.0571C122.505 50.0322 122.104 49.9263 122.017 50.0636C121.907 50.2322 121.986 50.415 122.297 50.5696C122.608 50.7231 123.196 50.8452 123.313 50.6809C123.429 50.5133 123.269 50.2322 122.606 50.0571ZM135.854 38.9247C135.753 39.2512 135.457 39.8523 135.419 40.0371C135.347 40.3831 135.443 40.8015 136.058 41.2469C136.058 41.2469 136.455 40.9615 136.615 40.5864C136.762 40.2339 136.674 39.9863 136.522 39.8047C136.367 39.622 136.008 39.1993 135.854 38.9247ZM134.561 40.2166C134.561 40.3918 134.689 41.3788 134.963 41.8686C135.346 42.5573 135.909 43.0697 136.403 43.0697C136.863 43.0697 136.958 42.7897 137.186 42.6751C137.186 42.6751 137.071 42.0772 136.554 41.9205C135.925 41.728 134.955 40.9496 134.561 40.2166ZM136.212 41.4751C136.318 41.3918 136.409 41.3334 136.538 41.1821C136.538 41.1821 137.025 41.368 137.425 41.6448C137.826 41.9216 138.219 42.3919 138.433 42.6394C138.433 42.6394 137.832 42.7994 137.45 42.6211C137.45 42.6211 137.31 42.0318 136.883 41.7691C136.789 41.7118 136.489 41.6221 136.212 41.4751ZM136.712 40.9691C136.805 40.821 136.996 40.5464 136.955 40.1182C136.955 40.1182 137.799 40.6653 138.053 40.8761C138.308 41.0869 138.834 41.6459 138.953 41.8297C138.953 41.8297 138.312 41.687 137.823 41.5194C137.282 41.3345 136.912 41.0869 136.712 40.9691ZM138.142 41.9086C138.596 42.0729 139.62 42.2448 140.049 42.3746C140.478 42.5043 140.789 42.7324 141.199 43.1919C141.199 43.1919 140.57 43.3703 140.234 43.4816C140.234 43.4816 139.699 43.1065 139.114 42.8762C138.732 42.7259 138.547 42.314 138.142 41.9086ZM139.093 45.006C138.996 44.8958 138.873 44.7671 138.968 44.5066C139.035 44.3152 139.406 44.1065 139.631 43.9941C139.998 43.8157 141.016 43.5357 141.347 43.4351C141.347 43.4351 141.511 43.6352 141.599 43.8449C141.638 43.926 141.587 44.0092 141.443 44.0363C141.159 44.0849 140.476 43.9552 140.311 44.0654C140.132 44.1844 140.195 44.3465 140.195 44.5055C140.195 44.5055 139.884 44.3109 139.687 44.3541C139.415 44.4179 139.249 44.5476 139.093 45.006ZM140.001 43.5541C139.928 43.5789 139.531 43.7043 139.142 43.9552C139.142 43.9552 138.972 43.8881 138.889 43.7249C138.806 43.5692 138.457 43.0416 138.14 42.9713C138.14 42.9713 138.409 42.9443 138.566 42.8946C138.566 42.8946 138.898 42.9822 139.132 43.0795C139.366 43.1768 139.659 43.326 140.001 43.5541ZM137.375 42.887C137.437 42.9162 137.538 42.9659 137.775 42.9767C137.775 42.9767 138.672 43.6146 138.778 44.2492C138.869 44.7941 138.59 45.0536 138.454 45.1228C138.317 45.192 137.694 45.4569 137.286 44.5974C137.286 44.5974 137.979 44.8309 138.168 44.4871C138.357 44.1455 138.052 43.647 137.863 43.5033C137.616 43.3141 137.17 43.1854 136.897 43.2351C136.899 43.2351 137.117 43.0222 137.375 42.887Z" fill="#0055A6"/>
<path fill-rule="evenodd" clip-rule="evenodd" d="M143.239 50.1825C143.13 49.7154 143.009 49.2224 142.8 48.7694C142.398 47.8916 141.405 45.5487 139.337 45.1358C139.14 45.0979 139.559 44.6038 139.743 44.6276C139.932 44.6514 140.3 44.8957 140.463 45.0071C140.463 45.0071 140.463 44.5076 140.467 44.419C140.473 44.3292 140.549 44.2957 140.629 44.3C140.708 44.3011 141.211 44.2957 141.368 44.4838C141.841 45.0439 142.636 46.551 143.086 47.6743C143.539 48.7954 143.848 49.1381 144.322 48.9651C144.799 48.7954 145.084 48.2343 145.916 48.4051C146.202 48.4624 146.519 48.6613 146.771 48.9543C146.703 49.0905 146.614 49.257 146.226 49.257C145.837 49.257 145.097 49.4246 144.684 49.7219C144.269 50.016 143.837 50.1155 143.239 50.1825ZM134.976 42.9227C134.933 43.2838 134.76 43.6243 134.571 43.9768C134.571 43.9768 135.202 46.9618 137.48 47.1932C137.48 47.1932 137.435 46.5747 136.761 46.1023C136.085 45.6309 135.076 44.9011 135.148 43.7908C135.148 43.7908 135.328 43.8287 135.654 44.2449C135.978 44.6611 136.687 45.8623 137.787 45.8709C137.787 45.8709 137.624 45.3076 137.139 44.9833C136.653 44.6611 136.031 44.2449 135.751 43.7443C135.471 43.2459 135.175 43.0156 134.976 42.9227ZM133.465 45.8147C133.596 46.2126 134.46 47.4602 134.838 47.817C135.216 48.1737 136.135 49.1154 136.624 49.5889C136.624 49.5889 135.226 49.2322 134.44 48.4992C134.44 48.4992 133.878 48.8354 133.471 48.8354H133.448C133.041 48.8354 132.48 48.4992 132.48 48.4992C131.693 49.2322 130.294 49.5889 130.294 49.5889C130.785 49.1154 131.704 48.1727 132.081 47.817C132.46 47.4613 133.322 46.2136 133.456 45.8147H133.465Z" fill="#0055A6"/>
<path fill-rule="evenodd" clip-rule="evenodd" d="M133.469 49.1274C133.778 49.1274 134.073 49.0008 134.235 48.9272C134.073 49.2843 133.76 49.8393 133.463 50.0708H133.457C133.161 49.8393 132.849 49.2843 132.684 48.9272C132.849 48.9997 133.139 49.1274 133.449 49.1274H133.469Z" fill="#0055A6"/>
<path fill-rule="evenodd" clip-rule="evenodd" d="M134.665 55.7817L140.137 47.9142L140.696 48.3261L140.727 46.4807L139.073 47.1293L139.595 47.5153C139.328 47.9023 135.238 53.787 134.722 54.5254L132.244 49.9187L131.94 50.3965L129.734 53.8151L129.183 53.4367L129.174 55.2573L130.847 54.5751L130.287 54.1935C130.589 53.721 131.787 51.8679 132.187 51.2474L134.665 55.7817Z" fill="#0055A6"/>
<path fill-rule="evenodd" clip-rule="evenodd" d="M135.666 52.6907C135.295 52.121 134.923 51.5447 134.735 51.2496C134.597 51.5134 134.314 52.0323 134.002 52.6042L133.612 51.8864L134.675 49.9198L134.982 50.3976L136.078 52.0972L135.666 52.6907ZM136.791 53.2032L137.187 53.8151L137.738 53.4367L137.748 55.2573L136.074 54.5751L136.633 54.1935L136.379 53.7967L136.791 53.2032ZM147.809 41.1972C147.398 40.7409 146.707 41.1334 146.008 41.795C145.308 42.4524 144.87 43.127 145.276 43.5843C145.655 44.006 146.379 43.647 147.077 42.9875C147.776 42.3291 148.216 41.6534 147.809 41.1972Z" fill="#0055A6"/>
<path fill-rule="evenodd" clip-rule="evenodd" d="M146.681 49.3068C146.703 49.2885 146.724 49.269 146.745 49.2484C147.117 48.9143 147.329 48.4019 147.329 47.8408C147.329 46.7618 146.474 45.8839 145.422 45.8839C144.372 45.8839 143.518 46.7618 143.518 47.8408C143.518 47.9878 143.546 48.2246 143.546 48.2246C143.46 48.057 143.146 47.311 143.082 47.1759C143.366 46.1217 144.306 45.3477 145.421 45.3477C146.382 45.3477 147.212 45.9207 147.606 46.751C147.455 45.765 146.976 44.8774 146.637 44.5487C146.233 44.1562 145.541 44.0308 145.541 44.0308C145.994 44.1054 146.591 43.82 147.257 43.1919C147.891 42.594 148.218 42.074 148.236 41.6372C148.196 42.2535 148.215 42.5983 148.385 43.0989C148.616 43.7811 149.245 45.0374 149.021 46.4558C148.897 47.2353 148.347 48.3943 147.427 49.3424C147.229 49.5554 147.155 49.87 147.134 50.0355C147.134 50.0355 145.776 50.0355 145.453 50.0636C145.453 50.0636 145.13 50.0355 145.136 49.8268C145.142 49.6214 145.321 49.5684 145.48 49.5684C145.644 49.5673 146.319 49.5835 146.681 49.3068ZM137.738 49.7111C136.582 49.0592 135.452 48.0602 134.432 46.4612L134.25 46.1466C134.527 46.2731 134.887 46.1866 134.887 46.1866C134.904 46.2126 134.947 46.2839 134.971 46.3239C135.92 47.7629 136.973 48.6721 138.049 49.2657L137.738 49.7111ZM139.168 49.7792C140.043 50.1068 140.914 50.2765 141.742 50.4063C142.279 50.4917 142.806 50.5198 143.309 50.4949C143.295 50.5914 143.31 50.6901 143.352 50.7782C143.352 50.7782 143.25 50.8982 143.25 51.0333C142.735 51.055 142.204 51.0225 141.661 50.9371C140.759 50.7944 139.807 50.6063 138.853 50.2365L139.168 49.7792ZM145.38 50.2225C145.539 50.1965 146.047 50.2095 146.351 50.2582C146.685 50.3122 147.065 50.3825 147.105 50.5706C147.143 50.7501 147.023 50.9414 146.852 51.2128C146.747 51.3804 146.501 51.2842 146.361 51.2323C146.225 51.1793 145.442 50.749 145.315 50.6074C145.189 50.4636 145.137 50.2647 145.38 50.2225ZM144.577 50.7533C144.652 50.7073 144.736 50.6787 144.823 50.6695C144.91 50.6603 144.998 50.6709 145.081 50.7004C145.29 50.7825 146.063 51.2506 146.115 51.469C146.166 51.6863 146.062 51.7988 145.942 51.8474C145.823 51.898 145.699 51.9332 145.571 51.9523C145.48 51.9554 145.388 51.9369 145.305 51.8982C145.221 51.8595 145.148 51.8017 145.091 51.7296C144.993 51.6053 144.631 51.1566 144.577 51.055C144.527 50.9544 144.499 50.8074 144.577 50.7533ZM144.485 51.2452C144.596 51.3728 144.909 51.7631 144.946 51.8258C144.981 51.8907 144.928 51.9891 144.831 51.9793C144.732 51.9696 144.201 51.9134 143.898 51.6982C143.592 51.4853 143.387 51.0733 143.599 50.9231C143.807 50.7706 144.133 50.8387 144.485 51.2452ZM144.314 50.0571C144.414 50.0322 144.816 49.9263 144.904 50.0636C145.013 50.2322 144.934 50.4149 144.623 50.5695C144.313 50.7231 143.724 50.8452 143.607 50.6809C143.492 50.5133 143.655 50.2322 144.314 50.0571Z" fill="#0055A6"/>
<path fill-rule="evenodd" clip-rule="evenodd" d="M0 0.924896V65.793H98V0.924896H0Z" fill="#0055A6"/>
<path d="M23.5332 34.0332L26.8047 25.7812H28.9824L23.9531 37.627C23.6146 38.3822 23.2988 38.9193 23.0059 39.2383C22.7129 39.5508 22.3678 39.7917 21.9707 39.9609C21.5801 40.1237 21.0885 40.2051 20.4961 40.2051C19.9818 40.2051 19.653 40.1758 19.5098 40.1172L19.5684 38.6328L20.457 38.6719C21.1406 38.6719 21.6484 38.3431 21.9805 37.6855L22.2246 37.1777L22.5957 36.3086L17.752 25.7812H19.8516L23.5332 34.0332ZM34.5195 38.7207C35.1641 38.7207 35.7272 38.5254 36.209 38.1348C36.6908 37.7441 36.9577 37.2559 37.0098 36.6699H38.7188C38.6862 37.2754 38.4779 37.8516 38.0938 38.3984C37.7096 38.9453 37.1953 39.3815 36.5508 39.707C35.9128 40.0326 35.2357 40.1953 34.5195 40.1953C33.0807 40.1953 31.9349 39.7168 31.082 38.7598C30.2357 37.7962 29.8125 36.4811 29.8125 34.8145V34.5117C29.8125 33.4831 30.0013 32.5684 30.3789 31.7676C30.7565 30.9668 31.2969 30.3451 32 29.9023C32.7096 29.4596 33.5462 29.2383 34.5098 29.2383C35.6947 29.2383 36.6777 29.5931 37.459 30.3027C38.2467 31.0124 38.6667 31.9336 38.7188 33.0664H37.0098C36.9577 32.3828 36.6973 31.8229 36.2285 31.3867C35.7663 30.944 35.1934 30.7227 34.5098 30.7227C33.5918 30.7227 32.8789 31.0547 32.3711 31.7188C31.8698 32.3763 31.6191 33.3301 31.6191 34.5801V34.9219C31.6191 36.1393 31.8698 37.0768 32.3711 37.7344C32.8724 38.3919 33.5885 38.7207 34.5195 38.7207ZM49.4121 29.4336V40H47.5957V30.9277H44.002L43.7871 34.8828C43.6699 36.6992 43.3639 37.998 42.8691 38.7793C42.3809 39.5605 41.6029 39.9674 40.5352 40H39.8125V38.4082L40.3301 38.3691C40.916 38.304 41.3359 37.9655 41.5898 37.3535C41.8438 36.7415 42.0065 35.6087 42.0781 33.9551L42.2734 29.4336H49.4121ZM55.7695 37.3535L58.2305 29.4336H60.1641L55.916 41.6309C55.2585 43.3887 54.2135 44.2676 52.7812 44.2676L52.4395 44.2383L51.7656 44.1113V42.6465L52.2539 42.6855C52.8659 42.6855 53.3411 42.5618 53.6797 42.3145C54.0247 42.0671 54.3079 41.6146 54.5293 40.957L54.9297 39.8828L51.1602 29.4336H53.1328L55.7695 37.3535ZM68.6113 30.9277H63.7383V40H61.9219V29.4336H68.6113V30.9277ZM77.0195 29.4336H78.8262V40H77.0195V32.2949L72.1465 40H70.3398V29.4336H72.1465V37.1484L77.0195 29.4336Z" fill="white"/>
</svg>
